<svg
    xmlns="http://www.w3.org/2000/svg" width="47" height="47" viewBox="0 0 47 47">
    <defs>
        <style>.a{fill:#e1e4f0;}.b{fill:#b5b8d0;}</style>
    </defs>
    <g transform="translate(-24 -626)">        
        <g transform="translate(-1 2)">
            <path class="b" d="M351.872-372.49a2,2,0,0,1-.519-.069l-16.421-4.4a1.985,1.985,0,0,1-1.214-.932,1.986,1.986,0,0,1-.2-1.517l2.071-7.727a2,2,0,0,1,1.931-1.483,2.006,2.006,0,0,1,.518.068l1.228.329L337.6-385.34a1.988,1.988,0,0,0-.2,1.518,1.985,1.985,0,0,0,.932,1.214l14.722,8.5a1.991,1.991,0,0,0,.712.247A1.994,1.994,0,0,1,351.872-372.49Z" transform="translate(-299.195 1031.554)"/>
            <rect class="b" width="21" height="12" rx="2" transform="translate(45.407 636.554) rotate(30)"/>
        </g>
    </g>
</svg>